<svg width="144" height="31" viewBox="0 0 144 31" fill="none" xmlns="http://www.w3.org/2000/svg">
<path d="M7.67743 7.67421L0 15.3484H7.79554H15.5763V23.1259V30.9182L23.2537 23.244L30.9312 15.5698V7.79227V1.90735e-06H23.1356H15.3549L7.67743 7.67421Z" fill="#262347"/>
<path d="M45.0013 9.13524C43.4067 9.72557 42.2699 10.7881 41.5021 12.3968C41.074 13.297 41.0444 13.4594 41.0444 15.127C41.0444 16.7504 41.074 16.9718 41.4578 17.7687C42.2551 19.4954 43.4805 20.5728 45.267 21.1188C46.8173 21.6058 48.7957 21.414 50.3016 20.6465C51.1284 20.2186 52.2062 19.1117 52.6049 18.2705C52.782 17.8868 52.9297 17.5326 52.9297 17.4883C52.9297 17.444 52.3391 17.4145 51.6009 17.4145H50.2721L49.5782 18.1377C47.8803 19.8939 45.0308 19.4216 43.8792 17.2079C43.6577 16.7652 43.5544 16.2486 43.5101 15.2746C43.451 14.0054 43.4658 13.9021 43.953 12.9871C44.6469 11.6589 45.4442 11.1571 47.0092 11.0981C47.9541 11.0686 48.2346 11.1128 48.7957 11.408C49.1648 11.5998 49.6225 11.9983 49.8144 12.2935L50.1688 12.8395H51.5566C52.9297 12.8395 52.9444 12.8395 52.8411 12.5001C52.472 11.3047 51.1875 9.94694 49.8292 9.3271C48.7071 8.81056 46.1529 8.72202 45.0013 9.13524Z" fill="#262347"/>
<path d="M135.462 10.0355V11.0686H138.194C139.7 11.0686 140.925 11.0981 140.925 11.1424C140.925 11.1866 139.7 13.0609 138.194 15.3189L135.462 19.4069V20.3219V21.2516H139.67H143.878V20.2186V19.1855L141.147 19.156L138.415 19.1117L141.147 15.0237L143.878 10.921V9.9617V9.00243H139.67H135.462V10.0355Z" fill="#262347"/>
<path d="M57.8463 11.6294C55.5874 12.4411 54.4358 14.2711 54.5834 16.839C54.7015 18.8756 55.7941 20.4252 57.5953 21.1041C58.304 21.3697 58.7027 21.414 59.7214 21.3697C61.8327 21.2812 63.3091 20.3662 64.1359 18.6099C64.4607 17.9016 64.5198 17.5916 64.5198 16.3815C64.5198 15.1566 64.4755 14.8762 64.1211 14.153C63.2501 12.4115 61.8179 11.4965 59.7952 11.408C58.9241 11.3637 58.4221 11.4228 57.8463 11.6294ZM60.7549 13.7988C62.1575 14.5072 62.5118 16.8242 61.4636 18.3443C61.0945 18.8608 60.1791 19.3331 59.5442 19.3331C58.7027 19.3331 57.7725 18.7575 57.4034 18.0049C57.0048 17.2374 56.9457 15.7616 57.2705 15.009C57.8316 13.6955 59.4261 13.1347 60.7549 13.7988Z" fill="#262347"/>
<path d="M70.6172 11.5261C70.3219 11.6146 69.8051 11.9098 69.4803 12.2049L68.875 12.7215V12.1164V11.5113H67.6938H66.5127V16.3815V21.2516H67.6791H68.8455L68.9045 18.0934C68.9488 14.6253 68.9783 14.5515 69.938 13.8283C70.4843 13.4299 71.8426 13.4299 72.3889 13.8283C73.2157 14.4334 73.3043 14.8319 73.3043 18.182V21.2516H74.5592H75.8142V18.2557C75.8142 14.8614 75.9618 14.2563 76.8625 13.7988C77.4826 13.4741 78.6194 13.4741 79.1805 13.7988C80.0958 14.3449 80.1697 14.6548 80.214 18.1082L80.2582 21.2516H81.4394H82.6058V17.813C82.591 14.1382 82.5319 13.7103 81.8085 12.7805C81.6018 12.5001 81.0703 12.1016 80.6421 11.895C78.9738 11.0686 77.3202 11.2752 76.0061 12.4706L75.2679 13.1199L74.7659 12.6034C74.4854 12.3082 74.013 11.9393 73.7029 11.7769C73.0237 11.4375 71.4144 11.3047 70.6172 11.5261Z" fill="#262347"/>
<path d="M89.3093 11.5999C88.9697 11.7179 88.4234 12.0574 88.0838 12.3378L87.4785 12.869V12.1902V11.5113H86.2974H85.1162V18.7428V25.9742H86.2974H87.4785V22.9341V19.8939L88.0248 20.3662C88.8663 21.1188 89.6193 21.3992 90.8005 21.3992C92.0259 21.3992 92.8822 21.0598 93.7238 20.2481C95.3183 18.7133 95.717 15.8502 94.6392 13.725C94.1962 12.8395 93.1332 11.895 92.2474 11.5999C91.4058 11.3047 90.1213 11.3194 89.3093 11.5999ZM91.4206 13.9021C93.4137 15.0975 93.0151 18.5657 90.8152 19.1855C89.073 19.6725 87.5966 18.4476 87.5818 16.47C87.5671 15.3779 87.9067 14.5957 88.6153 14.0645C89.4864 13.4003 90.4904 13.3413 91.4206 13.9021Z" fill="#262347"/>
<path d="M99.5413 11.5703C97.4891 12.3082 96.3818 14.1973 96.5146 16.7357C96.618 18.728 97.5186 20.2629 99.0246 21.0155C99.6447 21.3254 99.999 21.3992 100.9 21.3992C102.14 21.3992 102.981 21.0893 103.72 20.3366L104.163 19.8939V20.5728V21.2516H105.417H106.672V16.3815V11.5113H105.417H104.163V12.2049V12.8986L103.69 12.4411C102.657 11.4523 100.914 11.0833 99.5413 11.5703ZM103.026 14.0054C104.428 14.8761 104.532 17.6654 103.218 18.7133C101.416 20.1153 98.995 18.8018 98.995 16.411C98.995 14.0792 101.121 12.8248 103.026 14.0054Z" fill="#262347"/>
<path d="M113.242 11.5851C112.917 11.7179 112.401 12.0131 112.105 12.264L111.544 12.7067V12.1016V11.5113H110.363H109.182V16.3815V21.2516H110.349H111.515L111.574 18.1082C111.618 14.522 111.707 14.2563 112.844 13.7103C113.921 13.179 115.073 13.5036 115.678 14.5072C115.944 14.9352 115.974 15.2746 115.974 18.1082V21.2516H117.243H118.513L118.454 17.7392C118.41 14.5515 118.38 14.1825 118.1 13.5774C117.701 12.7362 117.111 12.1311 116.284 11.7622C115.413 11.3785 114.01 11.3047 113.242 11.5851Z" fill="#262347"/>
<path d="M119.812 11.6146C119.812 11.6736 120.683 13.8136 121.746 16.3815L123.665 21.0598L122.632 23.4654C122.056 24.7788 121.584 25.8857 121.584 25.9152C121.584 25.9447 122.16 25.9742 122.883 25.9742H124.167L127.165 18.8461C128.803 14.9352 130.147 11.6736 130.147 11.6146C130.147 11.5556 129.571 11.5261 128.863 11.5408L127.593 11.5851L126.338 14.9352C125.644 16.7947 125.053 18.2705 125.009 18.2262C124.98 18.1967 124.404 16.6914 123.725 14.8761L122.514 11.5851L121.17 11.5408C120.417 11.5261 119.812 11.5556 119.812 11.6146Z" fill="#262347"/>
<path d="M3.17437 20.2481C3.08578 20.6761 2.49521 23.0964 1.86035 25.6348C1.22548 28.1584 0.782556 30.2098 0.871141 30.1803C0.959727 30.1508 3.38107 29.5457 6.24534 28.852L11.4424 27.5681V23.5244V19.4807H7.39695H3.33678L3.17437 20.2481Z" fill="#262347"/>
</svg>
