<svg width="259" height="60" viewBox="0 0 259 60" fill="none" xmlns="http://www.w3.org/2000/svg">
<path d="M14.8718 14.8656L0 29.7312H15.1006H30.1727V44.7969V59.8912L45.0445 45.0256L59.9164 30.16V15.0943V2.55909e-05H44.8157H29.7437L14.8718 14.8656Z" fill="white"/>
<path d="M6.14893 39.2223C5.97733 40.0514 4.83334 44.7398 3.60355 49.6568C2.37377 54.5453 1.51578 58.519 1.68737 58.4619C1.85897 58.4047 6.54932 57.2326 12.0977 55.889L22.1648 53.4018V45.5688V37.7358H14.3284H6.46352L6.14893 39.2223Z" fill="white"/>
<path d="M82.4008 42V38.8058L95.1032 20.9826H82.376V16.5455H101.865V19.7397L89.1498 37.5629H101.889V42H82.4008ZM114.12 42V16.5455H124.162C126.093 16.5455 127.738 16.9142 129.097 17.6516C130.455 18.3808 131.491 19.3958 132.204 20.6967C132.925 21.9893 133.285 23.4808 133.285 25.1712C133.285 26.8615 132.92 28.353 132.191 29.6456C131.462 30.9382 130.406 31.945 129.022 32.6658C127.646 33.3867 125.981 33.7472 124.025 33.7472H117.625V29.4343H123.155C124.191 29.4343 125.045 29.2562 125.716 28.8999C126.395 28.5353 126.901 28.034 127.232 27.396C127.572 26.7496 127.742 26.008 127.742 25.1712C127.742 24.326 127.572 23.5885 127.232 22.9588C126.901 22.3208 126.395 21.8278 125.716 21.4798C125.036 21.1235 124.175 20.9453 123.131 20.9453H119.501V42H114.12ZM141.976 16.5455V42H136.681V16.5455H141.976ZM151.661 42.3604C150.443 42.3604 149.358 42.1491 148.405 41.7266C147.452 41.2957 146.698 40.6618 146.143 39.8249C145.596 38.9798 145.323 37.9274 145.323 36.668C145.323 35.6074 145.517 34.7166 145.907 33.9957C146.296 33.2749 146.826 32.6948 147.498 32.2557C148.169 31.8165 148.931 31.4851 149.785 31.2614C150.646 31.0376 151.549 30.8802 152.494 30.7891C153.604 30.6731 154.499 30.5653 155.179 30.4659C155.858 30.3582 156.351 30.2008 156.658 29.9936C156.964 29.7865 157.118 29.4799 157.118 29.0739V28.9993C157.118 28.2121 156.869 27.6031 156.372 27.1722C155.883 26.7414 155.187 26.5259 154.284 26.5259C153.331 26.5259 152.573 26.7372 152.009 27.1598C151.446 27.5741 151.073 28.0961 150.891 28.7259L145.994 28.3281C146.242 27.1681 146.731 26.1655 147.46 25.3203C148.189 24.4669 149.13 23.8123 150.282 23.3565C151.442 22.8925 152.784 22.6605 154.309 22.6605C155.369 22.6605 156.384 22.7848 157.354 23.0334C158.332 23.282 159.197 23.6673 159.951 24.1893C160.714 24.7113 161.314 25.3825 161.754 26.2028C162.193 27.0148 162.412 27.9884 162.412 29.1236V42H157.391V39.3526H157.242C156.935 39.9492 156.525 40.4754 156.011 40.9311C155.498 41.3786 154.88 41.7307 154.16 41.9876C153.439 42.2362 152.606 42.3604 151.661 42.3604ZM153.178 38.7063C153.957 38.7063 154.644 38.553 155.241 38.2464C155.837 37.9316 156.306 37.509 156.645 36.9787C156.985 36.4484 157.155 35.8477 157.155 35.1765V33.1506C156.989 33.2583 156.761 33.3577 156.471 33.4489C156.19 33.5317 155.871 33.6104 155.514 33.685C155.158 33.7513 154.802 33.8134 154.445 33.8714C154.089 33.9212 153.766 33.9667 153.476 34.0082C152.854 34.0993 152.312 34.2443 151.848 34.4432C151.384 34.642 151.023 34.9113 150.766 35.2511C150.51 35.5825 150.381 35.9968 150.381 36.494C150.381 37.2148 150.642 37.7659 151.164 38.147C151.694 38.5199 152.366 38.7063 153.178 38.7063ZM176.675 22.9091V26.8864H165.178V22.9091H176.675ZM167.788 18.3352H173.083V36.1335C173.083 36.6224 173.157 37.0036 173.306 37.277C173.456 37.5421 173.663 37.7286 173.928 37.8363C174.201 37.944 174.516 37.9979 174.872 37.9979C175.121 37.9979 175.37 37.9772 175.618 37.9357C175.867 37.886 176.057 37.8487 176.19 37.8239L177.023 41.7638C176.757 41.8467 176.385 41.942 175.904 42.0497C175.423 42.1657 174.839 42.2362 174.152 42.261C172.876 42.3107 171.757 42.1409 170.796 41.7514C169.843 41.362 169.101 40.7571 168.571 39.9368C168.041 39.1165 167.78 38.0807 167.788 36.8295V18.3352ZM190.39 22.9091V26.8864H178.607V22.9091H190.39ZM181.304 42V21.5295C181.304 20.1457 181.574 18.9981 182.112 18.0866C182.659 17.1752 183.405 16.4916 184.35 16.0359C185.294 15.5801 186.367 15.3523 187.569 15.3523C188.381 15.3523 189.122 15.4144 189.793 15.5387C190.473 15.663 190.978 15.7749 191.31 15.8743L190.365 19.8516C190.158 19.7853 189.901 19.7231 189.595 19.6651C189.296 19.6071 188.99 19.5781 188.675 19.5781C187.896 19.5781 187.353 19.7604 187.047 20.125C186.74 20.4813 186.587 20.9826 186.587 21.6289V42H181.304ZM201.567 42.3729C199.636 42.3729 197.967 41.9627 196.558 41.1424C195.158 40.3138 194.076 39.1621 193.314 37.6871C192.552 36.204 192.17 34.4846 192.17 32.5291C192.17 30.5571 192.552 28.8336 193.314 27.3587C194.076 25.8755 195.158 24.7237 196.558 23.9034C197.967 23.0748 199.636 22.6605 201.567 22.6605C203.497 22.6605 205.163 23.0748 206.563 23.9034C207.972 24.7237 209.057 25.8755 209.82 27.3587C210.582 28.8336 210.963 30.5571 210.963 32.5291C210.963 34.4846 210.582 36.204 209.82 37.6871C209.057 39.1621 207.972 40.3138 206.563 41.1424C205.163 41.9627 203.497 42.3729 201.567 42.3729ZM201.592 38.2713C202.47 38.2713 203.203 38.0227 203.792 37.5256C204.38 37.0201 204.823 36.3324 205.121 35.4624C205.428 34.5923 205.581 33.6022 205.581 32.4918C205.581 31.3815 205.428 30.3913 205.121 29.5213C204.823 28.6513 204.38 27.9635 203.792 27.4581C203.203 26.9527 202.47 26.6999 201.592 26.6999C200.705 26.6999 199.959 26.9527 199.354 27.4581C198.758 27.9635 198.306 28.6513 198 29.5213C197.701 30.3913 197.552 31.3815 197.552 32.4918C197.552 33.6022 197.701 34.5923 198 35.4624C198.306 36.3324 198.758 37.0201 199.354 37.5256C199.959 38.0227 200.705 38.2713 201.592 38.2713ZM214.406 42V22.9091H219.539V26.2401H219.738C220.086 25.0552 220.67 24.1603 221.49 23.5554C222.311 22.9422 223.255 22.6357 224.324 22.6357C224.589 22.6357 224.875 22.6522 225.182 22.6854C225.488 22.7185 225.758 22.7641 225.99 22.8221V27.5202C225.741 27.4457 225.397 27.3794 224.958 27.3214C224.519 27.2634 224.117 27.2344 223.752 27.2344C222.974 27.2344 222.278 27.4042 221.664 27.744C221.06 28.0754 220.579 28.5394 220.223 29.136C219.875 29.7326 219.701 30.4203 219.701 31.1992V42H214.406ZM228.727 42V22.9091H233.773V26.2773H233.997C234.395 25.1587 235.058 24.2763 235.986 23.63C236.914 22.9837 238.024 22.6605 239.317 22.6605C240.626 22.6605 241.74 22.9878 242.66 23.6424C243.58 24.2887 244.193 25.167 244.5 26.2773H244.698C245.088 25.1836 245.792 24.3094 246.811 23.6548C247.839 22.992 249.053 22.6605 250.453 22.6605C252.235 22.6605 253.68 23.2281 254.791 24.3633C255.909 25.4902 256.469 27.0894 256.469 29.1609V42H251.186V30.2049C251.186 29.1443 250.905 28.3488 250.341 27.8185C249.778 27.2882 249.073 27.0231 248.228 27.0231C247.267 27.0231 246.517 27.3297 245.979 27.9428C245.44 28.5477 245.171 29.3473 245.171 30.3416V42H240.038V30.093C240.038 29.1567 239.768 28.411 239.23 27.8558C238.699 27.3007 237.999 27.0231 237.129 27.0231C236.541 27.0231 236.011 27.1722 235.538 27.4705C235.074 27.7605 234.706 28.1707 234.432 28.701C234.159 29.223 234.022 29.8362 234.022 30.5405V42H228.727Z" fill="white"/>
</svg>
